<svg width="51" height="66" viewBox="0 0 51 66" fill="none" xmlns="http://www.w3.org/2000/svg">
<rect x="2.10773" width="3.16159" height="61.9144" rx="1.58079" fill="#121212"/>
<rect x="44.5257" width="3.16159" height="61.9144" rx="1.58079" fill="#121212"/>
<rect y="3.07019" width="50.0585" height="2.04676" rx="1.02338" fill="#121212"/>
<path d="M16.7456 2.14693C17.0782 1.62151 17.6785 1.98855 17.6785 2.51548C17.8118 3.70108 17.8118 4.35974 17.6785 4.88667L15.0129 4.49147C14.613 4.28968 13.596 4.49147 14.1229 2.12029C14.5181 1.72508 14.9133 1.98855 15.0129 2.12029C15.2901 1.62771 15.7611 1.90137 15.9459 2.12029C16.2231 1.62771 16.5607 1.92801 16.7456 2.14693Z" fill="#3E3E3E"/>
<path d="M18.3383 11.4734C19.3638 14.8728 18.8653 12.7907 19.6557 16.4792L16.8618 17.9157L16.0989 15.1619C15.7476 14.2717 15.0977 11.5236 14.7816 7.6531L14.8817 5.94534C13.6171 5.10225 13.5644 3.70588 13.8279 3.31068C15.0925 2.04604 15.6721 2.34464 15.8039 2.65201C16.0146 2.96817 15.4526 3.22286 15.1452 3.31068L15.9356 4.10107H17.7771C17.9088 5.55014 17.3408 6.16482 16.9895 6.47217C17.0405 7.01679 17.3847 8.31177 18.3383 11.4734Z" fill="#121212"/>
<path d="M16.8234 4.09631C17.1659 4.36754 17.537 4.20932 17.6797 4.09631V3.70111L15.1768 3.30591C15.1768 3.70111 15.7915 4.19014 15.9672 4.09631C16.1955 4.36754 16.6331 4.20932 16.8234 4.09631Z" fill="#3E3E3E"/>
<path d="M25.5841 11.856C23.1878 11.856 22.8011 14.4553 22.9073 15.755C22.3465 16.2501 22.8436 16.7864 23.1623 16.9927C23.3662 17.2403 23.3747 18.4162 23.3535 18.9732H27.4961V17.8592C27.4961 17.6116 27.7085 17.2609 27.8147 17.1165C28.7835 17.067 28.5583 15.9819 28.3246 15.4455C28.3246 12.7224 26.4976 11.9178 25.5841 11.856Z" fill="#121212"/>
<path d="M20.2306 34.0741H30.1091C30.1091 34.6682 30.4915 35.7245 30.6827 36.1783C31.0014 36.7353 31.3413 39.1284 31.3838 40.4487C31.2308 40.7952 31.7024 43.9351 31.9574 45.4617C32.009 45.7711 32.0211 45.9774 31.9574 46.0806C31.2945 46.6747 27.6023 46.5757 25.839 46.4519C25.89 45.7587 25.6054 44.4714 25.4566 43.9144C25.3037 43.9144 25.0105 45.7711 24.8831 46.6994C22.0788 48.0362 19.4658 47.0914 18.5098 46.4519C18.9687 45.7092 18.9135 44.5746 18.8285 44.1001C18.9304 43.5555 18.786 41.4389 18.701 40.4487C18.5098 39.706 19.9119 35.6213 19.9119 35.4357C19.657 34.4949 20.0181 34.136 20.2306 34.0741Z" fill="#121212"/>
<path d="M23.9271 56.7255C22.4485 55.6362 21.5265 52.352 21.2503 50.846C20.8892 50.4128 20.2306 49.3731 20.4855 48.6799C20.528 48.3292 20.5238 47.504 20.4218 47.2565C21.2503 47.3802 23.0348 47.504 24.2457 47.0089L24.1183 49.7939C24.4582 50.4334 25.1762 51.7372 25.3292 51.8362C25.7966 51.238 26.7568 50.0415 26.8588 50.0415C26.9862 50.0415 26.7313 46.5757 26.8588 46.5138H28.9619L31.1288 46.39C30.8739 47.0089 30.619 48.1848 30.619 49.0512C30.67 49.2988 30.2578 49.8145 30.0454 50.0415C30.7592 51.2297 28.0909 54.8275 26.6676 56.4779C26.7695 56.5274 27.2624 58.2314 27.4961 59.0772C27.904 59.1763 28.2609 60.2325 28.3884 60.7483C28.9492 60.7483 29.2169 61.3671 29.2806 61.6766C30.4533 62.4193 30.6615 63.2238 30.619 63.5333C30.2111 63.6323 28.8345 64.5235 28.1972 64.9567C25.6988 66.343 24.182 65.9469 23.7359 65.5756C23.481 65.4271 24.2245 64.4822 24.6281 64.0284C22.8946 62.9886 22.2488 62.1923 22.1426 61.9241C22.2955 61.6766 21.9089 61.1608 21.6964 60.9339C21.0336 60.3398 21.8452 59.5724 22.3338 59.2629C22.5377 59.0649 23.481 57.4888 23.9271 56.7255Z" fill="#121212"/>
<path d="M28.549 18.9621C28.2224 19.633 27.6901 19.0933 27.4989 18.9695H23.3552C23.1235 19.5087 22.6896 19.3695 22.4893 19.26C22.3575 18.4257 21.209 17.257 19.9863 15.835L16.7932 17.721C17.257 20.6821 17.7839 21.6042 18.4055 24.0989C18.6574 25.8974 18.8378 27.7956 19.9863 30.2986C19.8917 31.3524 20.1393 32.8352 20.1818 34.0729H30.1082L30.0814 33.4601L30.2985 30.0351C30.8522 28.6507 31.5352 25.7115 31.7476 24.3706C32.2745 23.3167 32.6666 22.2691 32.9332 21.7359C34.1188 19.3647 34.2912 18.8519 34.2505 17.721L31.0519 16.2348C29.3764 17.5205 28.7913 18.4643 28.549 18.9621Z" fill="#121212"/>
<path d="M34.3943 2.13436C34.0616 1.60894 33.4613 1.97598 33.4613 2.50291C33.3281 3.6885 33.3281 4.34716 33.4613 4.87409L36.127 4.4789C36.5268 4.2771 37.5439 4.4789 37.017 2.10772C36.6218 1.71251 36.2266 1.97597 36.127 2.10771C35.8497 1.61514 35.3788 1.88879 35.194 2.10772C34.9168 1.61514 34.5791 1.91543 34.3943 2.13436Z" fill="#3E3E3E"/>
<path d="M32.8015 11.4608C31.7761 14.8603 32.2746 12.7781 31.4842 16.4666L34.2506 17.721L35.041 15.1493C35.3923 14.2591 36.0421 11.511 36.3583 7.64053L36.2581 5.93276C37.5228 5.08967 37.5754 3.6933 37.312 3.2981C36.0473 2.03347 35.4677 2.33206 35.336 2.63944C35.1252 2.9556 35.6873 3.21028 35.9947 3.2981L35.2043 4.0885H33.3628C33.2311 5.53756 33.7991 6.15225 34.1504 6.4596C34.0994 7.00422 33.7552 8.29919 32.8015 11.4608Z" fill="#121212"/>
<path d="M34.3164 4.08373C33.9739 4.35496 33.6029 4.19674 33.4602 4.08373V3.68853L35.9631 3.29333C35.9631 3.68853 35.3483 4.17756 35.1727 4.08373C34.9444 4.35496 34.5067 4.19674 34.3164 4.08373Z" fill="#3E3E3E"/>
</svg>
