<svg width="24" height="26" viewBox="0 0 24 26" fill="none" xmlns="http://www.w3.org/2000/svg">
<path d="M5.06438 20.1935C5.73432 17.5824 7.66628 11.9025 14.5687 8.74642C15.6479 10.2496 12.6115 15.8975 5.06438 20.1935Z" fill="#C2BDC5"/>
<path d="M13.1959 9.67786C12.8129 13.2306 7.62707 17.6599 5.082 19.4304L4.92884 20.4263C7.78497 19.5542 11.6888 15.0776 13.2837 12.9484C14.0488 12.5482 14.6566 10.2599 14.8648 9.16576L14.2742 8.93347L13.1959 9.67786Z" fill="#B3ADB6"/>
<path d="M6.64696 14.338C6.9383 14.4076 7.53121 14.5555 7.57217 14.5896C8.09422 14.0159 9.14699 12.8584 9.18162 12.8181C9.05543 12.2291 7.58577 12.3252 6.86672 12.4469L6.64696 14.338Z" fill="#A49CA7"/>
<path d="M12.1433 16.3201C12.029 15.9081 11.809 15.074 11.8436 15.0337C12.0771 14.7959 12.5528 14.3103 12.5874 14.27C13.0382 15.544 12.4792 16.1675 12.1433 16.3201Z" fill="#A49CA7"/>
<path d="M7.46392 20.0302L7.49888 18.763L9.86415 16.9293C10.4941 17.1771 10.3503 18.5437 10.1996 19.1961C10.0295 18.9853 8.30492 19.6643 7.46392 20.0302Z" fill="#A49CA7"/>
<path d="M1.94507 21.1404L4.91258 19.1166L4.96419 20.2829L6.16867 19.9028C5.69406 21.0344 4.73618 23.3079 4.70155 23.3482C3.61902 23.4842 4.02773 21.5775 4.01983 21.4845C3.33026 21.8785 2.34934 21.4193 1.94507 21.1404Z" fill="#A49CA7"/>
<path fill-rule="evenodd" clip-rule="evenodd" d="M6.63257 12.4318C6.63946 12.3282 6.71571 12.2419 6.81897 12.2208C7.15016 12.153 7.66539 12.0834 8.13919 12.0965C8.37547 12.1031 8.61399 12.1304 8.81817 12.1958C8.97348 12.2456 9.12948 12.3242 9.24249 12.4504C10.1875 11.4791 11.4894 10.3111 12.8636 9.41171C13.1923 9.16935 13.7 8.854 14.1502 8.71411C14.3709 8.64551 14.6228 8.6044 14.8399 8.68065C14.9553 8.72118 15.0569 8.79374 15.1309 8.90224C15.2031 9.00799 15.2404 9.1351 15.2522 9.27432C15.253 9.28386 15.2532 9.29345 15.2528 9.30302C15.2358 9.71338 15.0942 10.2254 14.9512 10.6376C14.8786 10.8466 14.8035 11.0363 14.7391 11.1828C14.7069 11.256 14.6767 11.3201 14.6502 11.3714C14.6274 11.4154 14.5974 11.4701 14.5645 11.5083C14.4809 11.6057 14.3328 11.6179 14.2338 11.5356C14.1349 11.4532 14.1225 11.3075 14.2062 11.2101L14.2045 11.212L14.204 11.2126C14.2039 11.2127 14.2039 11.2127 14.2038 11.2127C14.2038 11.2127 14.204 11.2123 14.2044 11.2116L14.2056 11.2095C14.2092 11.2036 14.2179 11.1891 14.232 11.1618C14.2527 11.1217 14.2787 11.0669 14.3083 10.9995C14.3675 10.8648 14.4383 10.6866 14.5071 10.4883C14.6447 10.0918 14.7662 9.63897 14.7833 9.29915C14.7752 9.22386 14.7566 9.18204 14.7413 9.15973C14.7271 9.13887 14.7096 9.12533 14.6822 9.11572C14.6138 9.09171 14.4859 9.09418 14.2914 9.15461C13.9137 9.27199 13.4529 9.55372 13.1399 9.78511C13.1363 9.78778 13.1326 9.79035 13.1288 9.79282C12.7074 10.0684 12.2923 10.3704 11.8925 10.6847C11.8907 10.695 11.8883 10.7053 11.885 10.7156C11.7765 11.0601 11.7081 11.6177 11.8552 12.1522C11.987 12.6314 12.2917 13.0956 12.9172 13.3833C13.2197 12.9761 13.51 12.5529 13.7843 12.1141C13.8522 12.0055 13.9967 11.9716 14.1071 12.0384C14.2174 12.1052 14.2519 12.2475 14.184 12.3561C13.8859 12.8331 13.5693 13.2919 13.2391 13.7322C13.2371 13.7397 13.2347 13.7472 13.2318 13.7547C13.2127 13.8046 13.1778 13.8442 13.1348 13.8701C13.075 13.9485 13.0147 14.0264 12.954 14.1036C12.9825 14.1361 13.0022 14.1768 13.0087 14.2224C13.2078 15.6232 12.67 16.4937 12.3152 16.7781C12.2523 16.8286 12.1674 16.8434 12.0907 16.8175C12.0141 16.7916 11.9564 16.7285 11.9383 16.6507C11.8883 16.436 11.8128 16.1092 11.7491 15.8265C11.7286 15.7357 11.7092 15.6491 11.6923 15.5722C11.2428 16.0524 10.7836 16.5026 10.3244 16.9221C10.5416 17.3507 10.5995 17.8203 10.5858 18.2323C10.5708 18.6851 10.469 19.0882 10.3755 19.3289C10.3527 19.3876 10.3066 19.4346 10.2479 19.4591C10.1892 19.4836 10.1229 19.4835 10.0642 19.4589C9.95961 19.4149 9.80006 19.4063 9.58243 19.4491C9.36929 19.491 9.12727 19.5769 8.87753 19.6893C8.37836 19.914 7.88026 20.2303 7.57615 20.4521C7.50155 20.5065 7.40136 20.5125 7.32061 20.4674C7.23986 20.4223 7.19374 20.3345 7.20297 20.2436L7.29871 19.3006C7.04468 19.4713 6.7991 19.6294 6.56427 19.7748C6.56155 19.7827 6.55836 19.7906 6.5547 19.7984L4.7413 23.6469C4.7105 23.7123 4.6505 23.7598 4.57903 23.7753C4.50757 23.7908 4.43283 23.7726 4.37694 23.7261C3.92765 23.3522 3.75742 22.8589 3.72284 22.411C3.70498 22.1795 3.72275 21.9559 3.75848 21.7589C2.67702 22.0783 1.96821 21.6769 1.71139 21.3257C1.67493 21.2759 1.66015 21.2138 1.67031 21.1532C1.68048 21.0926 1.71475 21.0384 1.76555 21.0028L4.86292 18.8278C4.90185 18.8004 4.94637 18.7865 4.99083 18.7849C5.10384 18.4902 5.24171 18.1688 5.40775 17.8239C5.82879 16.9492 6.43382 15.9166 7.28192 14.7717C7.17368 14.7512 7.05892 14.7283 6.95634 14.7058C6.86281 14.6852 6.77329 14.6636 6.70713 14.6433C6.67687 14.634 6.63775 14.6209 6.60399 14.6034C6.59185 14.5971 6.55192 14.5764 6.51819 14.5364C6.49977 14.5145 6.46926 14.4704 6.46312 14.4063C6.45935 14.367 6.46572 14.3309 6.47802 14.2995C6.47894 14.2943 6.48009 14.2873 6.48145 14.2782C6.48664 14.2433 6.49285 14.192 6.49983 14.1259C6.5137 13.9945 6.5296 13.815 6.54585 13.6156C6.57833 13.2172 6.61173 12.745 6.63257 12.4318ZM4.75674 19.4697L2.26997 21.216C2.55095 21.4013 3.12055 21.5671 4.01015 21.1731C4.09738 21.1345 4.1997 21.1519 4.26876 21.217C4.33782 21.2821 4.3598 21.382 4.32431 21.4695C4.24394 21.6674 4.16266 22.0118 4.19077 22.376C4.21133 22.6423 4.2892 22.9106 4.46144 23.143L5.84912 20.198C5.48569 20.4027 5.16219 20.5682 4.89075 20.6936C4.81604 20.7281 4.72842 20.7214 4.65998 20.6761C4.59155 20.6307 4.55236 20.5532 4.55677 20.4721C4.5698 20.233 4.63095 19.8939 4.75674 19.4697ZM7.79784 18.9564C8.48485 18.4703 9.21906 17.9 9.9598 17.2488C10.0875 17.5568 10.1274 17.8958 10.1168 18.2173C10.1072 18.5066 10.0569 18.7712 10.0012 18.9692C9.8354 18.9477 9.66024 18.9627 9.49052 18.9961C9.22876 19.0476 8.95032 19.1486 8.68235 19.2692C8.341 19.4229 8.00365 19.6144 7.72022 19.794L7.79936 19.0146C7.80138 18.9947 7.80078 18.9752 7.79784 18.9564ZM12.0817 15.1456C12.0877 15.163 12.0916 15.1813 12.0932 15.2004L12.0931 15.1988C12.0931 15.1982 12.0933 15.1993 12.0939 15.2027L12.0939 15.2027C12.0949 15.2081 12.0969 15.2194 12.1007 15.2386C12.1066 15.2687 12.1151 15.3093 12.1257 15.3585C12.1467 15.4567 12.1754 15.5857 12.2072 15.7264C12.2326 15.839 12.2599 15.9588 12.2867 16.0757C12.4597 15.766 12.6213 15.2675 12.5742 14.5734C12.4122 14.7683 12.2478 14.959 12.0817 15.1456ZM8.9153 12.7908L8.91633 12.7927C8.73996 12.982 8.58025 13.1604 8.43972 13.324C8.13644 13.6771 7.85522 14.0224 7.59465 14.3589C7.44424 14.3327 7.23134 14.2929 7.05864 14.255C7.02297 14.2471 6.98994 14.2396 6.96016 14.2324C6.96228 14.2137 6.96442 14.1941 6.96658 14.1736C6.98104 14.0367 6.99729 13.853 7.01363 13.6525C7.04062 13.3213 7.06819 12.9404 7.08876 12.6406C7.38627 12.5903 7.77341 12.5485 8.126 12.5583C8.33992 12.5642 8.52859 12.5888 8.67293 12.6351C8.8206 12.6824 8.88844 12.7411 8.9153 12.7908ZM5.08402 20.0837C6.84057 19.1843 10.0976 17.0101 12.6308 13.7597C11.9253 13.4054 11.5599 12.8459 11.4022 12.273C11.2952 11.8841 11.2838 11.4908 11.3204 11.1505C10.2726 12.0334 9.37112 12.9552 8.79807 13.6223C7.33868 15.3213 6.40544 16.83 5.83183 18.0217C5.40591 18.9065 5.1813 19.6101 5.08402 20.0837ZM13.7552 10.6619C13.8987 10.4949 13.8774 10.2451 13.7078 10.1039C13.5381 9.96274 13.2844 9.98365 13.1409 10.1506C12.9975 10.3176 13.0187 10.5674 13.1884 10.7086C13.358 10.8498 13.6118 10.8289 13.7552 10.6619Z" fill="#555555"/>
<path fill-rule="evenodd" clip-rule="evenodd" d="M4.75441 19.114C4.69941 19.0384 4.71703 18.9333 4.79377 18.8792L5.03746 18.7072C5.11419 18.6531 5.22099 18.6705 5.27599 18.746C5.33099 18.8215 5.31337 18.9267 5.23663 18.9808L4.99294 19.1527C4.91621 19.2068 4.80941 19.1895 4.75441 19.114Z" fill="#696969"/>
<path fill-rule="evenodd" clip-rule="evenodd" d="M22.8934 2.30964L17.8767 0V2.37563H8.98327H8.64807V2.70558V11.4822H9.31846V3.03553H17.8767V23.6904H9.31846V20.4569H8.64807V24.0203V24.3503H8.98327H17.8767V26L22.5983 24.4162H24V2.30964H22.8934Z" fill="#555555"/>
</svg>
