<svg width="18" height="18" viewBox="0 0 18 18" fill="none" xmlns="http://www.w3.org/2000/svg">
<path d="M9 17.8882C6.5 17.8882 4.375 17.0186 2.625 15.2795C0.875 13.5404 0 11.4286 0 8.9441C0 6.45963 0.875 4.34783 2.625 2.6087C4.375 0.869565 6.5 0 9 0C9.23333 0 9.4625 0.00828157 9.6875 0.0248447C9.9125 0.0414079 10.1333 0.0662526 10.35 0.0993789C9.66667 0.57971 9.12083 1.20497 8.7125 1.97516C8.30417 2.74534 8.1 3.57764 8.1 4.47205C8.1 5.96273 8.625 7.22981 9.675 8.27329C10.725 9.31677 12 9.83851 13.5 9.83851C14.4167 9.83851 15.2583 9.63561 16.025 9.22981C16.7917 8.82402 17.4167 8.28157 17.9 7.60248C17.9333 7.81781 17.9583 8.03727 17.975 8.26087C17.9917 8.48447 18 8.71222 18 8.9441C18 11.4286 17.125 13.5404 15.375 15.2795C13.625 17.0186 11.5 17.8882 9 17.8882ZM9 15.9006C10.4667 15.9006 11.7833 15.499 12.95 14.6957C14.1167 13.8923 14.9667 12.8447 15.5 11.5528C15.1667 11.6356 14.8333 11.7019 14.5 11.7516C14.1667 11.8012 13.8333 11.8261 13.5 11.8261C11.45 11.8261 9.70417 11.1097 8.2625 9.67702C6.82083 8.24431 6.1 6.50932 6.1 4.47205C6.1 4.14079 6.125 3.80952 6.175 3.47826C6.225 3.147 6.29167 2.81573 6.375 2.48447C5.075 3.01449 4.02083 3.85921 3.2125 5.01863C2.40417 6.17805 2 7.48654 2 8.9441C2 10.8654 2.68333 12.5052 4.05 13.8634C5.41667 15.2215 7.06667 15.9006 9 15.9006Z" fill="#F9F9F9"/>
</svg>
