<svg width="60" height="35" viewBox="0 0 60 35" fill="none" xmlns="http://www.w3.org/2000/svg">
<path d="M44.6825 18.591C44.6825 18.2853 44.2266 13.3939 44.3786 13.0881L46.6583 12.3239L45.8984 25.4696C46.3847 25.5919 46.6908 26.2089 47.4001 26.3618C48.1501 28.4469 46.652 30.2302 46.5001 30.383C42.4501 31.4256 43.0501 27.8511 44.0746 27.2882C43.9501 26.2128 44.3786 20.8839 44.6825 18.591Z" fill="#3E3E3E"/>
<path d="M28.7783 17.6738C27.4409 16.5732 26.1408 12.9861 25.5328 11.5594C22.3716 13.516 18.4436 15.7376 17.0758 16.298C13.4282 16.298 10.5912 18.2342 9.62869 19.2023C5.85956 22.8709 4.51199 23.4824 4.30935 23.3295C1.99924 22.9627 1.42171 23.89 1.42171 24.3995L0.0538731 30.2081C-0.40207 31.431 2.18161 30.9724 2.33359 30.9724C3.42785 30.361 2.48557 29.3929 1.87765 28.9853L6.43708 24.7052L16.1639 20.7309C17.6229 20.8532 19.3048 20.4762 19.9634 20.2724C21.0577 20.6392 26.3466 18.6419 28.7783 17.6738Z" fill="#121212"/>
<path d="M35.4116 14.6166C35.5332 11.9263 34.1451 9.11367 33.4359 8.04366C28.8156 7.79909 25.8368 10.5403 25.0769 11.865C25.1985 13.577 27.3566 16.5527 28.4205 17.8265C29.15 17.8265 30.6495 17.1132 31.3081 16.7565C31.7945 16.1451 34.3478 15.0242 35.4116 14.6166Z" fill="#121212"/>
<path d="M55.9291 0.095164C52.0383 -0.638555 51.167 3.05042 51.2176 4.98662L50.0018 5.59805C50.7313 5.96491 50.8124 8.40045 50.9137 9.57236L52.5855 8.96093L53.6493 10.1838C54.622 10.4284 57.7528 8.80807 59.4246 6.36234C61.4004 1.92946 57.8035 0.349927 55.9291 0.095164Z" fill="#121212"/>
<path d="M50.3058 5.59805C47.1446 2.54089 37.6407 6.05662 33.2839 8.19663C34.0438 9.62332 35.4725 12.9047 35.1077 14.6167C36.1209 14.311 38.4817 13.6996 39.8191 13.6996L46.2115 12.9353C46.3743 15.1592 46.222 18.0961 46.0504 19.9667C45.1993 29.3828 45.9997 32.3482 46.5063 32.6539C47.2501 33.1028 47.3981 33.0106 47.5501 32.6539C47.7932 31.4311 45.9312 31.7493 47.5501 30.0851C47.1001 27.1064 48.8367 24.1449 49.6979 21.4953V13.5467C52.1296 9.87811 51.1164 6.71902 50.3058 5.59805Z" fill="#121212"/>
<path d="M49.6979 13.5466V21.4952C49.2 24.7233 47.55 30.234 47.55 31.5744C48.3277 33.1188 48.0344 34.1002 47.4866 34.5996C47.1892 34.8708 46.8167 34.9999 46.5 34.9999C45.5946 34.9999 44.962 34.8665 44.55 34.5996C44.2081 34.3781 44.018 34.0648 43.95 33.6595C43.8948 33.331 43.95 32.1701 44.7945 31.5744C44.8967 29.5455 45.4961 26.0984 46.0503 19.9666C46.222 18.096 46.3743 15.1592 46.2114 12.9352C46.4473 12.9352 48.634 13.3428 49.6979 13.5466Z" fill="#121212"/>
</svg>
