<svg width="50" height="66" viewBox="0 0 50 66" fill="none" xmlns="http://www.w3.org/2000/svg">
<rect x="2.10526" width="3.15789" height="65.5526" rx="1.57895" fill="#121212"/>
<rect x="44.4737" width="3.15789" height="65.5526" rx="1.57895" fill="#121212"/>
<rect y="3.25061" width="50" height="2.16703" rx="1.08351" fill="#121212"/>
<path d="M25.2911 0C22.8976 0 22.5114 2.75208 22.6175 4.12812C22.0573 4.65232 22.5538 5.22021 22.8721 5.43863C23.0758 5.70073 23.0843 6.94572 23.0631 7.53545H27.2008V6.35599C27.2008 6.09389 27.413 5.72257 27.5191 5.56968C28.4867 5.51726 28.2618 4.36838 28.0284 3.80049C28.0284 0.917359 26.2035 0.0655257 25.2911 0Z" fill="#121212"/>
<path d="M29.0469 7.53545C28.4103 8.25623 27.3281 7.6665 27.1371 7.53545L23.063 7.46993C23.0121 8.04655 21.9808 8.14703 21.4716 8.12518C19.6382 6.44773 17.1853 8.43097 16.188 9.63227C14.8639 9.16049 13.7265 10.2657 13.3234 10.8773C13.5271 10.5627 12.7716 9.4357 12.3685 8.91149L12.2412 5.43863C13.6162 2.5555 12.7292 2.31524 12.1139 2.5555C12.012 2.0313 11.5197 2.20604 11.2863 2.35893C11.0317 1.88715 10.5012 2.16236 10.2678 2.35893C9.80943 1.78231 9.3129 2.20604 9.12192 2.48998C8.56173 3.69566 9.48265 5.17654 10.0131 5.76627C9.40202 11.1656 10.2678 14.088 10.777 14.8743C11.8465 15.5558 13.2173 14.9835 13.769 14.6122C15.144 14.9792 17.355 13.6293 18.2887 12.9086C18.1359 13.59 18.8192 14.5904 19.1799 15.0054C18.9253 16.3683 19.7528 18.5001 20.1984 19.3956C19.9438 19.6053 19.965 22.2787 20.0074 23.5892H29.7471V22.8685V19.2645C30.3073 18.5831 30.8717 15.5733 31.0839 14.1535C31.4659 13.8914 31.9539 13.1051 32.1661 12.5154C32.7772 14.0356 35.1368 14.6341 36.2402 14.7433C36.8514 15.4247 38.5744 15.0272 39.3595 14.7433C40.0215 13.2755 40.1446 8.32177 40.1234 6.02837C40.8873 5.39932 41.0358 3.84418 41.0146 3.14524C41.1674 2.41135 40.6114 2.48998 40.3143 2.62103C40.1616 2.20167 39.7839 2.40261 39.6141 2.5555C39.4104 2.03128 38.8927 2.33707 38.6592 2.5555C38.3537 1.97887 37.8105 2.48997 37.5771 2.8176C36.6095 3.44665 37.3861 5.08916 37.8953 5.83178L37.959 5.89731V8.25623C37.9081 8.83286 37.0466 10.0691 36.6222 10.6152C35.9092 9.4619 34.3729 9.34833 33.6939 9.43569C32.93 7.6665 29.6835 6.81467 29.0469 7.53545Z" fill="#121212"/>
<path d="M13.769 14.6122C15.144 14.9792 17.355 13.6293 18.2887 12.9086L16.188 9.63227C14.8639 9.16049 13.7265 10.2657 13.3234 10.8773C13.5271 10.5627 12.7716 9.4357 12.3685 8.91149L12.2412 5.43863C13.6162 2.5555 12.7292 2.31524 12.1138 2.5555C12.012 2.0313 11.5197 2.20604 11.2863 2.35893C11.0317 1.88715 10.5012 2.16236 10.2678 2.35893C9.80943 1.78231 9.3129 2.20604 9.12192 2.48998C8.56173 3.69566 9.48265 5.17654 10.0131 5.76627C9.40202 11.1656 10.2678 14.088 10.777 14.8743C11.8465 15.5558 13.2173 14.9835 13.769 14.6122Z" fill="#121212"/>
<path d="M25.291 0C22.8975 0 22.5113 2.75208 22.6174 4.12812C22.0572 4.65232 22.5537 5.22021 22.872 5.43863C23.0757 5.70073 23.0842 6.94572 23.063 7.53545H27.2008V6.35599C27.2008 6.09389 27.413 5.72257 27.5191 5.56968C28.4867 5.51726 28.2617 4.36838 28.0283 3.80049C28.0283 0.917359 26.2035 0.0655257 25.291 0Z" fill="#121212"/>
<path d="M36.6221 10.6151C35.9092 9.46184 34.3729 9.34827 33.6939 9.43563L32.1661 12.5153C32.7772 14.0356 35.1368 14.634 36.2402 14.7432C36.8513 15.4247 38.5743 15.0272 39.3594 14.7432C40.0215 13.2754 40.1445 8.32171 40.1233 6.02831C40.8872 5.39926 41.0358 3.84412 41.0145 3.14518C41.1673 2.41129 40.6114 2.48992 40.3143 2.62098C40.1615 2.20161 39.7838 2.40255 39.6141 2.55544C39.4104 2.03122 38.8926 2.33701 38.6592 2.55544C38.3536 1.97881 37.8104 2.48991 37.577 2.81754C36.6094 3.44659 37.386 5.0891 37.8953 5.83172L37.959 5.89725V8.25617C37.908 8.8328 37.0465 10.069 36.6221 10.6151Z" fill="#121212"/>
<path d="M19.9437 23.5237H29.8107C29.8107 24.1527 30.1927 25.271 30.3837 25.7516C30.7019 26.3413 31.0415 28.8749 31.0839 30.2728C30.9311 30.6398 31.4022 33.9641 31.6568 35.5804C31.7084 35.908 31.7205 36.1264 31.6568 36.2357C30.9948 36.8647 27.3069 36.7599 25.5456 36.6288C25.5966 35.8949 25.3122 34.532 25.1637 33.9423C25.0109 33.9423 24.7181 35.908 24.5908 36.8909C21.7898 38.3063 19.1798 37.3059 18.225 36.6288C18.6833 35.8425 18.6281 34.6412 18.5433 34.1388C18.6451 33.5622 18.5008 31.3212 18.4159 30.2728C18.225 29.4865 19.6255 25.1618 19.6255 24.9652C19.3708 23.9693 19.7315 23.5892 19.9437 23.5237Z" fill="#121212"/>
<path d="M23.6359 47.5061C22.1591 46.3529 21.2381 42.8757 20.9623 41.2812C20.6016 40.8225 19.9438 39.7217 20.1984 38.9878C20.2408 38.6165 20.2366 37.7428 20.1347 37.4807C20.9623 37.6118 22.7447 37.7428 23.9542 37.2186L23.8269 40.1673C24.1664 40.8444 24.8836 42.2248 25.0364 42.3296C25.5032 41.6962 26.4623 40.4294 26.5642 40.4294C26.6915 40.4294 26.4369 36.7599 26.5642 36.6944H28.6649L30.8293 36.5634C30.5746 37.2186 30.32 38.4636 30.32 39.381C30.3709 39.6431 29.9593 40.1891 29.7471 40.4294C30.4601 41.6875 27.7949 45.4967 26.3732 47.244C26.4751 47.2965 26.9674 49.1006 27.2008 49.9961C27.6082 50.101 27.9647 51.2193 28.092 51.7653C28.6522 51.7653 28.9195 52.4206 28.9832 52.7482C30.1545 53.5345 30.3625 54.3863 30.32 54.714C29.9126 54.8188 28.5376 55.7624 27.901 56.2211C25.4056 57.6888 23.8906 57.2695 23.445 56.8763C23.1903 56.719 23.933 55.7187 24.3362 55.2382C22.6047 54.1373 21.9596 53.2942 21.8535 53.0103C22.0063 52.7482 21.6201 52.2021 21.4079 51.9619C20.7459 51.3328 21.5564 50.5203 22.0445 50.1927C22.2482 49.983 23.1903 48.3143 23.6359 47.5061Z" fill="#121212"/>
</svg>
