<svg width="192" height="189" viewBox="0 0 192 189" fill="none" xmlns="http://www.w3.org/2000/svg">
<path d="M96 185.281C147.303 185.281 189 144.535 189 94.1404C189 43.7462 147.303 3 96 3C44.6969 3 3 43.7462 3 94.1404C3 144.535 44.6969 185.281 96 185.281Z" fill="#C7E2FB" stroke="#121212" stroke-width="6"/>
<path d="M135.941 138.217C135.941 131.548 134.899 124.944 132.874 118.783C130.849 112.622 127.881 107.023 124.14 102.308C120.398 97.5921 115.956 93.8514 111.068 91.2994C106.18 88.7473 100.94 87.4337 95.6491 87.4337C90.3579 87.4337 85.1185 88.7473 80.2301 91.2994C75.3417 93.8514 70.9 97.5921 67.1585 102.308C63.4171 107.023 60.4492 112.622 58.4244 118.783C56.3995 124.944 55.3574 131.548 55.3574 138.217L95.6491 138.217H135.941Z" fill="#698EC0"/>
<mask id="path-3-outside-1_72_932" maskUnits="userSpaceOnUse" x="49.3574" y="81.4337" width="93" height="63" fill="black">
<rect fill="white" x="49.3574" y="81.4337" width="93" height="63"/>
<path d="M135.941 138.217C135.941 131.548 134.899 124.944 132.874 118.783C130.849 112.622 127.881 107.023 124.14 102.308C120.398 97.5921 115.956 93.8514 111.068 91.2994C106.18 88.7473 100.94 87.4337 95.6491 87.4337C90.3579 87.4337 85.1185 88.7473 80.2301 91.2994C75.3417 93.8514 70.9 97.5921 67.1585 102.308C63.4171 107.023 60.4492 112.622 58.4244 118.783C56.3995 124.944 55.3574 131.548 55.3574 138.217L95.6491 138.217H135.941Z"/>
</mask>
<path d="M135.941 138.217C135.941 131.548 134.899 124.944 132.874 118.783C130.849 112.622 127.881 107.023 124.14 102.308C120.398 97.5921 115.956 93.8514 111.068 91.2994C106.18 88.7473 100.94 87.4337 95.6491 87.4337C90.3579 87.4337 85.1185 88.7473 80.2301 91.2994C75.3417 93.8514 70.9 97.5921 67.1585 102.308C63.4171 107.023 60.4492 112.622 58.4244 118.783C56.3995 124.944 55.3574 131.548 55.3574 138.217L95.6491 138.217H135.941Z" stroke="#121212" stroke-width="12" mask="url(#path-3-outside-1_72_932)"/>
<ellipse cx="95.7532" cy="60.5509" rx="20.25" ry="19.8316" fill="#698EC0"/>
<path d="M95.7532 83.3825C108.534 83.3825 119.003 73.2192 119.003 60.5509C119.003 47.8826 108.534 37.7193 95.7532 37.7193C82.9719 37.7193 72.5032 47.8826 72.5032 60.5509C72.5032 73.2192 82.9719 83.3825 95.7532 83.3825Z" stroke="#121212" stroke-width="6"/>
</svg>
